<?xml version="1.0" encoding="UTF-8"?> <svg xmlns="http://www.w3.org/2000/svg" xmlns:xlink="http://www.w3.org/1999/xlink" width="24" height="24" viewBox="0 0 24 24"><defs><clipPath id="clip-path"><rect id="Rectangle_114" data-name="Rectangle 114" width="24" height="24" stroke="#707070" stroke-width="1"></rect></clipPath></defs><g id="Mask_Group_39" data-name="Mask Group 39" clip-path="url(#clip-path)"><path id="_227601_right_arrow_icon" data-name="227601_right_arrow_icon" d="M2.275,10.69H15.917l-4.695,4.695a.875.875,0,1,0,1.238,1.238l6.189-6.189h0a.883.883,0,0,0,.109-.133c.015-.022.025-.046.038-.069a.877.877,0,0,0,.043-.082.778.778,0,0,0,.028-.091c.007-.024.017-.047.022-.072a.875.875,0,0,0,.017-.172h0v0a.882.882,0,0,0-.017-.169c-.005-.026-.015-.051-.023-.076a.813.813,0,0,0-.027-.087.906.906,0,0,0-.046-.087c-.012-.021-.021-.043-.035-.064a.862.862,0,0,0-.11-.134L12.46,3.007a.875.875,0,1,0-1.238,1.238l4.695,4.695H2.275a.875.875,0,1,0,0,1.751Z" transform="translate(1.847 2.186)"></path></g></svg> 