<?xml version="1.0" encoding="UTF-8"?> <svg xmlns="http://www.w3.org/2000/svg" xmlns:xlink="http://www.w3.org/1999/xlink" width="19.199" height="19.199" viewBox="0 0 19.199 19.199"><defs><clipPath id="clip-path"><rect id="Rectangle_114" data-name="Rectangle 114" width="19.199" height="19.199" fill="#fff" stroke="#707070" stroke-width="1"></rect></clipPath></defs><g id="Mask_Group_39" data-name="Mask Group 39" clip-path="url(#clip-path)"><path id="_227601_right_arrow_icon" data-name="227601_right_arrow_icon" d="M2.07,8.824H12.5L8.913,12.415a.669.669,0,1,0,.947.947l4.734-4.734h0a.676.676,0,0,0,.083-.1c.011-.017.019-.035.029-.053a.671.671,0,0,0,.033-.062.6.6,0,0,0,.022-.069c.006-.019.013-.036.017-.055a.669.669,0,0,0,.013-.131h0v0a.675.675,0,0,0-.013-.13c0-.02-.012-.039-.017-.058a.622.622,0,0,0-.021-.066.693.693,0,0,0-.035-.066c-.009-.016-.016-.033-.027-.049a.66.66,0,0,0-.084-.1L9.86,2.946a.67.67,0,1,0-.947.947L12.5,7.485H2.07a.67.67,0,1,0,0,1.339Z" transform="translate(0.686 1.446)" fill="#fff"></path></g></svg> 